<svg xmlns="http://www.w3.org/2000/svg" version="1.1" xmlns:xlink="http://www.w3.org/1999/xlink" xmlns:svgjs="http://svgjs.com/svgjs" width="1440" height="1500" preserveAspectRatio="none" viewBox="0 0 1440 1500"><g mask="url(&quot;#SvgjsMask1067&quot;)" fill="none"><rect width="1440" height="1500" x="0" y="0" fill="rgba(2, 18, 35, 1)"></rect><path d="M42.98 361.21L101.87 395.21L101.87 463.21L42.98 497.21L-15.91 463.21L-15.91 395.21zM42.98 973.21L101.87 1007.21L101.87 1075.21L42.98 1109.21L-15.91 1075.21L-15.91 1007.21zM101.87 1279.21L160.76 1313.21L160.76 1381.21L101.87 1415.21L42.98 1381.21L42.98 1313.21zM219.65 55.21L278.55 89.21L278.55 157.21L219.65 191.21L160.76 157.21L160.76 89.21zM160.76 157.21L219.65 191.21L219.65 259.21L160.76 293.21L101.87 259.21L101.87 191.21zM219.65 259.21L278.55 293.21L278.55 361.21L219.65 395.21L160.76 361.21L160.76 293.21zM160.76 361.21L219.65 395.21L219.65 463.21L160.76 497.21L101.87 463.21L101.87 395.21zM219.65 463.21L278.55 497.21L278.55 565.21L219.65 599.21L160.76 565.21L160.76 497.21zM160.76 565.21L219.65 599.21L219.65 667.21L160.76 701.21L101.87 667.21L101.87 599.21zM160.76 973.21L219.65 1007.21L219.65 1075.21L160.76 1109.21L101.87 1075.21L101.87 1007.21zM278.55 -46.79L337.44 -12.79L337.44 55.21L278.55 89.21L219.65 55.21L219.65 -12.79zM278.55 361.21L337.44 395.21L337.44 463.21L278.55 497.21L219.65 463.21L219.65 395.21zM337.44 667.21L396.33 701.21L396.33 769.21L337.44 803.21L278.55 769.21L278.55 701.21zM278.55 769.21L337.44 803.21L337.44 871.21L278.55 905.21L219.65 871.21L219.65 803.21zM455.22 55.21L514.11 89.21L514.11 157.21L455.22 191.21L396.33 157.21L396.33 89.21zM396.33 769.21L455.22 803.21L455.22 871.21L396.33 905.21L337.44 871.21L337.44 803.21zM455.22 1279.21L514.11 1313.21L514.11 1381.21L455.22 1415.21L396.33 1381.21L396.33 1313.21zM396.33 1381.21L455.22 1415.21L455.22 1483.21L396.33 1517.21L337.44 1483.21L337.44 1415.21zM455.22 1483.21L514.11 1517.21L514.11 1585.21L455.22 1619.21L396.33 1585.21L396.33 1517.21zM514.11 -46.79L573 -12.79L573 55.21L514.11 89.21L455.22 55.21L455.22 -12.79zM573 55.21L631.89 89.21L631.89 157.21L573 191.21L514.11 157.21L514.11 89.21zM573 463.21L631.89 497.21L631.89 565.21L573 599.21L514.11 565.21L514.11 497.21zM514.11 565.21L573 599.21L573 667.21L514.11 701.21L455.22 667.21L455.22 599.21zM573 1279.21L631.89 1313.21L631.89 1381.21L573 1415.21L514.11 1381.21L514.11 1313.21zM690.79 259.21L749.68 293.21L749.68 361.21L690.79 395.21L631.89 361.21L631.89 293.21zM690.79 1075.21L749.68 1109.21L749.68 1177.21L690.79 1211.21L631.89 1177.21L631.89 1109.21zM631.89 1177.21L690.79 1211.21L690.79 1279.21L631.89 1313.21L573 1279.21L573 1211.21zM690.79 1279.21L749.68 1313.21L749.68 1381.21L690.79 1415.21L631.89 1381.21L631.89 1313.21zM749.68 -46.79L808.57 -12.79L808.57 55.21L749.68 89.21L690.79 55.21L690.79 -12.79zM749.68 1177.21L808.57 1211.21L808.57 1279.21L749.68 1313.21L690.79 1279.21L690.79 1211.21zM749.68 1381.21L808.57 1415.21L808.57 1483.21L749.68 1517.21L690.79 1483.21L690.79 1415.21zM926.35 463.21L985.24 497.21L985.24 565.21L926.35 599.21L867.46 565.21L867.46 497.21zM926.35 667.21L985.24 701.21L985.24 769.21L926.35 803.21L867.46 769.21L867.46 701.21zM867.46 769.21L926.35 803.21L926.35 871.21L867.46 905.21L808.57 871.21L808.57 803.21zM926.35 1483.21L985.24 1517.21L985.24 1585.21L926.35 1619.21L867.46 1585.21L867.46 1517.21zM985.24 361.21L1044.13 395.21L1044.13 463.21L985.24 497.21L926.35 463.21L926.35 395.21zM1044.13 667.21L1103.03 701.21L1103.03 769.21L1044.13 803.21L985.24 769.21L985.24 701.21zM985.24 973.21L1044.13 1007.21L1044.13 1075.21L985.24 1109.21L926.35 1075.21L926.35 1007.21zM1044.13 1075.21L1103.03 1109.21L1103.03 1177.21L1044.13 1211.21L985.24 1177.21L985.24 1109.21zM985.24 1177.21L1044.13 1211.21L1044.13 1279.21L985.24 1313.21L926.35 1279.21L926.35 1211.21zM1044.13 1483.21L1103.03 1517.21L1103.03 1585.21L1044.13 1619.21L985.24 1585.21L985.24 1517.21zM1103.03 361.21L1161.92 395.21L1161.92 463.21L1103.03 497.21L1044.13 463.21L1044.13 395.21zM1103.03 565.21L1161.92 599.21L1161.92 667.21L1103.03 701.21L1044.13 667.21L1044.13 599.21zM1220.81 565.21L1279.7 599.21L1279.7 667.21L1220.81 701.21L1161.92 667.21L1161.92 599.21zM1220.81 1381.21L1279.7 1415.21L1279.7 1483.21L1220.81 1517.21L1161.92 1483.21L1161.92 1415.21zM1338.59 -46.79L1397.48 -12.79L1397.48 55.21L1338.59 89.21L1279.7 55.21L1279.7 -12.79zM1338.59 361.21L1397.48 395.21L1397.48 463.21L1338.59 497.21L1279.7 463.21L1279.7 395.21zM1456.37 769.21L1515.26 803.21L1515.26 871.21L1456.37 905.21L1397.48 871.21L1397.48 803.21zM1515.26 1075.21L1574.16 1109.21L1574.16 1177.21L1515.26 1211.21L1456.37 1177.21L1456.37 1109.21z" stroke="#03305d" stroke-width="2"></path><path d="M36.18 361.21 a6.8 6.8 0 1 0 13.6 0 a6.8 6.8 0 1 0 -13.6 0zM95.07 395.21 a6.8 6.8 0 1 0 13.6 0 a6.8 6.8 0 1 0 -13.6 0zM95.07 463.21 a6.8 6.8 0 1 0 13.6 0 a6.8 6.8 0 1 0 -13.6 0zM36.18 497.21 a6.8 6.8 0 1 0 13.6 0 a6.8 6.8 0 1 0 -13.6 0zM-22.71 463.21 a6.8 6.8 0 1 0 13.6 0 a6.8 6.8 0 1 0 -13.6 0zM-22.71 395.21 a6.8 6.8 0 1 0 13.6 0 a6.8 6.8 0 1 0 -13.6 0zM36.18 973.21 a6.8 6.8 0 1 0 13.6 0 a6.8 6.8 0 1 0 -13.6 0zM95.07 1007.21 a6.8 6.8 0 1 0 13.6 0 a6.8 6.8 0 1 0 -13.6 0zM95.07 1075.21 a6.8 6.8 0 1 0 13.6 0 a6.8 6.8 0 1 0 -13.6 0zM36.18 1109.21 a6.8 6.8 0 1 0 13.6 0 a6.8 6.8 0 1 0 -13.6 0zM-22.71 1075.21 a6.8 6.8 0 1 0 13.6 0 a6.8 6.8 0 1 0 -13.6 0zM-22.71 1007.21 a6.8 6.8 0 1 0 13.6 0 a6.8 6.8 0 1 0 -13.6 0zM95.07 1279.21 a6.8 6.8 0 1 0 13.6 0 a6.8 6.8 0 1 0 -13.6 0zM153.96 1313.21 a6.8 6.8 0 1 0 13.6 0 a6.8 6.8 0 1 0 -13.6 0zM153.96 1381.21 a6.8 6.8 0 1 0 13.6 0 a6.8 6.8 0 1 0 -13.6 0zM95.07 1415.21 a6.8 6.8 0 1 0 13.6 0 a6.8 6.8 0 1 0 -13.6 0zM36.18 1381.21 a6.8 6.8 0 1 0 13.6 0 a6.8 6.8 0 1 0 -13.6 0zM36.18 1313.21 a6.8 6.8 0 1 0 13.6 0 a6.8 6.8 0 1 0 -13.6 0zM212.85 55.21 a6.8 6.8 0 1 0 13.6 0 a6.8 6.8 0 1 0 -13.6 0zM271.75 89.21 a6.8 6.8 0 1 0 13.6 0 a6.8 6.8 0 1 0 -13.6 0zM271.75 157.21 a6.8 6.8 0 1 0 13.6 0 a6.8 6.8 0 1 0 -13.6 0zM212.85 191.21 a6.8 6.8 0 1 0 13.6 0 a6.8 6.8 0 1 0 -13.6 0zM153.96 157.21 a6.8 6.8 0 1 0 13.6 0 a6.8 6.8 0 1 0 -13.6 0zM153.96 89.21 a6.8 6.8 0 1 0 13.6 0 a6.8 6.8 0 1 0 -13.6 0zM212.85 259.21 a6.8 6.8 0 1 0 13.6 0 a6.8 6.8 0 1 0 -13.6 0zM153.96 293.21 a6.8 6.8 0 1 0 13.6 0 a6.8 6.8 0 1 0 -13.6 0zM95.07 259.21 a6.8 6.8 0 1 0 13.6 0 a6.8 6.8 0 1 0 -13.6 0zM95.07 191.21 a6.8 6.8 0 1 0 13.6 0 a6.8 6.8 0 1 0 -13.6 0zM271.75 293.21 a6.8 6.8 0 1 0 13.6 0 a6.8 6.8 0 1 0 -13.6 0zM271.75 361.21 a6.8 6.8 0 1 0 13.6 0 a6.8 6.8 0 1 0 -13.6 0zM212.85 395.21 a6.8 6.8 0 1 0 13.6 0 a6.8 6.8 0 1 0 -13.6 0zM153.96 361.21 a6.8 6.8 0 1 0 13.6 0 a6.8 6.8 0 1 0 -13.6 0zM212.85 463.21 a6.8 6.8 0 1 0 13.6 0 a6.8 6.8 0 1 0 -13.6 0zM153.96 497.21 a6.8 6.8 0 1 0 13.6 0 a6.8 6.8 0 1 0 -13.6 0zM271.75 497.21 a6.8 6.8 0 1 0 13.6 0 a6.8 6.8 0 1 0 -13.6 0zM271.75 565.21 a6.8 6.8 0 1 0 13.6 0 a6.8 6.8 0 1 0 -13.6 0zM212.85 599.21 a6.8 6.8 0 1 0 13.6 0 a6.8 6.8 0 1 0 -13.6 0zM153.96 565.21 a6.8 6.8 0 1 0 13.6 0 a6.8 6.8 0 1 0 -13.6 0zM212.85 667.21 a6.8 6.8 0 1 0 13.6 0 a6.8 6.8 0 1 0 -13.6 0zM153.96 701.21 a6.8 6.8 0 1 0 13.6 0 a6.8 6.8 0 1 0 -13.6 0zM95.07 667.21 a6.8 6.8 0 1 0 13.6 0 a6.8 6.8 0 1 0 -13.6 0zM95.07 599.21 a6.8 6.8 0 1 0 13.6 0 a6.8 6.8 0 1 0 -13.6 0zM153.96 973.21 a6.8 6.8 0 1 0 13.6 0 a6.8 6.8 0 1 0 -13.6 0zM212.85 1007.21 a6.8 6.8 0 1 0 13.6 0 a6.8 6.8 0 1 0 -13.6 0zM212.85 1075.21 a6.8 6.8 0 1 0 13.6 0 a6.8 6.8 0 1 0 -13.6 0zM153.96 1109.21 a6.8 6.8 0 1 0 13.6 0 a6.8 6.8 0 1 0 -13.6 0zM271.75 -46.79 a6.8 6.8 0 1 0 13.6 0 a6.8 6.8 0 1 0 -13.6 0zM330.64 -12.79 a6.8 6.8 0 1 0 13.6 0 a6.8 6.8 0 1 0 -13.6 0zM330.64 55.21 a6.8 6.8 0 1 0 13.6 0 a6.8 6.8 0 1 0 -13.6 0zM212.85 -12.79 a6.8 6.8 0 1 0 13.6 0 a6.8 6.8 0 1 0 -13.6 0zM330.64 395.21 a6.8 6.8 0 1 0 13.6 0 a6.8 6.8 0 1 0 -13.6 0zM330.64 463.21 a6.8 6.8 0 1 0 13.6 0 a6.8 6.8 0 1 0 -13.6 0zM330.64 667.21 a6.8 6.8 0 1 0 13.6 0 a6.8 6.8 0 1 0 -13.6 0zM389.53 701.21 a6.8 6.8 0 1 0 13.6 0 a6.8 6.8 0 1 0 -13.6 0zM389.53 769.21 a6.8 6.8 0 1 0 13.6 0 a6.8 6.8 0 1 0 -13.6 0zM330.64 803.21 a6.8 6.8 0 1 0 13.6 0 a6.8 6.8 0 1 0 -13.6 0zM271.75 769.21 a6.8 6.8 0 1 0 13.6 0 a6.8 6.8 0 1 0 -13.6 0zM271.75 701.21 a6.8 6.8 0 1 0 13.6 0 a6.8 6.8 0 1 0 -13.6 0zM330.64 871.21 a6.8 6.8 0 1 0 13.6 0 a6.8 6.8 0 1 0 -13.6 0zM271.75 905.21 a6.8 6.8 0 1 0 13.6 0 a6.8 6.8 0 1 0 -13.6 0zM212.85 871.21 a6.8 6.8 0 1 0 13.6 0 a6.8 6.8 0 1 0 -13.6 0zM212.85 803.21 a6.8 6.8 0 1 0 13.6 0 a6.8 6.8 0 1 0 -13.6 0zM448.42 55.21 a6.8 6.8 0 1 0 13.6 0 a6.8 6.8 0 1 0 -13.6 0zM507.31 89.21 a6.8 6.8 0 1 0 13.6 0 a6.8 6.8 0 1 0 -13.6 0zM507.31 157.21 a6.8 6.8 0 1 0 13.6 0 a6.8 6.8 0 1 0 -13.6 0zM448.42 191.21 a6.8 6.8 0 1 0 13.6 0 a6.8 6.8 0 1 0 -13.6 0zM389.53 157.21 a6.8 6.8 0 1 0 13.6 0 a6.8 6.8 0 1 0 -13.6 0zM389.53 89.21 a6.8 6.8 0 1 0 13.6 0 a6.8 6.8 0 1 0 -13.6 0zM448.42 803.21 a6.8 6.8 0 1 0 13.6 0 a6.8 6.8 0 1 0 -13.6 0zM448.42 871.21 a6.8 6.8 0 1 0 13.6 0 a6.8 6.8 0 1 0 -13.6 0zM389.53 905.21 a6.8 6.8 0 1 0 13.6 0 a6.8 6.8 0 1 0 -13.6 0zM448.42 1279.21 a6.8 6.8 0 1 0 13.6 0 a6.8 6.8 0 1 0 -13.6 0zM507.31 1313.21 a6.8 6.8 0 1 0 13.6 0 a6.8 6.8 0 1 0 -13.6 0zM507.31 1381.21 a6.8 6.8 0 1 0 13.6 0 a6.8 6.8 0 1 0 -13.6 0zM448.42 1415.21 a6.8 6.8 0 1 0 13.6 0 a6.8 6.8 0 1 0 -13.6 0zM389.53 1381.21 a6.8 6.8 0 1 0 13.6 0 a6.8 6.8 0 1 0 -13.6 0zM389.53 1313.21 a6.8 6.8 0 1 0 13.6 0 a6.8 6.8 0 1 0 -13.6 0zM448.42 1483.21 a6.8 6.8 0 1 0 13.6 0 a6.8 6.8 0 1 0 -13.6 0zM389.53 1517.21 a6.8 6.8 0 1 0 13.6 0 a6.8 6.8 0 1 0 -13.6 0zM330.64 1483.21 a6.8 6.8 0 1 0 13.6 0 a6.8 6.8 0 1 0 -13.6 0zM330.64 1415.21 a6.8 6.8 0 1 0 13.6 0 a6.8 6.8 0 1 0 -13.6 0zM507.31 1517.21 a6.8 6.8 0 1 0 13.6 0 a6.8 6.8 0 1 0 -13.6 0zM507.31 1585.21 a6.8 6.8 0 1 0 13.6 0 a6.8 6.8 0 1 0 -13.6 0zM448.42 1619.21 a6.8 6.8 0 1 0 13.6 0 a6.8 6.8 0 1 0 -13.6 0zM389.53 1585.21 a6.8 6.8 0 1 0 13.6 0 a6.8 6.8 0 1 0 -13.6 0zM507.31 -46.79 a6.8 6.8 0 1 0 13.6 0 a6.8 6.8 0 1 0 -13.6 0zM566.2 -12.79 a6.8 6.8 0 1 0 13.6 0 a6.8 6.8 0 1 0 -13.6 0zM566.2 55.21 a6.8 6.8 0 1 0 13.6 0 a6.8 6.8 0 1 0 -13.6 0zM448.42 -12.79 a6.8 6.8 0 1 0 13.6 0 a6.8 6.8 0 1 0 -13.6 0zM625.09 89.21 a6.8 6.8 0 1 0 13.6 0 a6.8 6.8 0 1 0 -13.6 0zM625.09 157.21 a6.8 6.8 0 1 0 13.6 0 a6.8 6.8 0 1 0 -13.6 0zM566.2 191.21 a6.8 6.8 0 1 0 13.6 0 a6.8 6.8 0 1 0 -13.6 0zM566.2 463.21 a6.8 6.8 0 1 0 13.6 0 a6.8 6.8 0 1 0 -13.6 0zM625.09 497.21 a6.8 6.8 0 1 0 13.6 0 a6.8 6.8 0 1 0 -13.6 0zM625.09 565.21 a6.8 6.8 0 1 0 13.6 0 a6.8 6.8 0 1 0 -13.6 0zM566.2 599.21 a6.8 6.8 0 1 0 13.6 0 a6.8 6.8 0 1 0 -13.6 0zM507.31 565.21 a6.8 6.8 0 1 0 13.6 0 a6.8 6.8 0 1 0 -13.6 0zM507.31 497.21 a6.8 6.8 0 1 0 13.6 0 a6.8 6.8 0 1 0 -13.6 0zM566.2 667.21 a6.8 6.8 0 1 0 13.6 0 a6.8 6.8 0 1 0 -13.6 0zM507.31 701.21 a6.8 6.8 0 1 0 13.6 0 a6.8 6.8 0 1 0 -13.6 0zM448.42 667.21 a6.8 6.8 0 1 0 13.6 0 a6.8 6.8 0 1 0 -13.6 0zM448.42 599.21 a6.8 6.8 0 1 0 13.6 0 a6.8 6.8 0 1 0 -13.6 0zM566.2 1279.21 a6.8 6.8 0 1 0 13.6 0 a6.8 6.8 0 1 0 -13.6 0zM625.09 1313.21 a6.8 6.8 0 1 0 13.6 0 a6.8 6.8 0 1 0 -13.6 0zM625.09 1381.21 a6.8 6.8 0 1 0 13.6 0 a6.8 6.8 0 1 0 -13.6 0zM566.2 1415.21 a6.8 6.8 0 1 0 13.6 0 a6.8 6.8 0 1 0 -13.6 0zM683.99 259.21 a6.8 6.8 0 1 0 13.6 0 a6.8 6.8 0 1 0 -13.6 0zM742.88 293.21 a6.8 6.8 0 1 0 13.6 0 a6.8 6.8 0 1 0 -13.6 0zM742.88 361.21 a6.8 6.8 0 1 0 13.6 0 a6.8 6.8 0 1 0 -13.6 0zM683.99 395.21 a6.8 6.8 0 1 0 13.6 0 a6.8 6.8 0 1 0 -13.6 0zM625.09 361.21 a6.8 6.8 0 1 0 13.6 0 a6.8 6.8 0 1 0 -13.6 0zM625.09 293.21 a6.8 6.8 0 1 0 13.6 0 a6.8 6.8 0 1 0 -13.6 0zM683.99 1075.21 a6.8 6.8 0 1 0 13.6 0 a6.8 6.8 0 1 0 -13.6 0zM742.88 1109.21 a6.8 6.8 0 1 0 13.6 0 a6.8 6.8 0 1 0 -13.6 0zM742.88 1177.21 a6.8 6.8 0 1 0 13.6 0 a6.8 6.8 0 1 0 -13.6 0zM683.99 1211.21 a6.8 6.8 0 1 0 13.6 0 a6.8 6.8 0 1 0 -13.6 0zM625.09 1177.21 a6.8 6.8 0 1 0 13.6 0 a6.8 6.8 0 1 0 -13.6 0zM625.09 1109.21 a6.8 6.8 0 1 0 13.6 0 a6.8 6.8 0 1 0 -13.6 0zM683.99 1279.21 a6.8 6.8 0 1 0 13.6 0 a6.8 6.8 0 1 0 -13.6 0zM566.2 1211.21 a6.8 6.8 0 1 0 13.6 0 a6.8 6.8 0 1 0 -13.6 0zM742.88 1313.21 a6.8 6.8 0 1 0 13.6 0 a6.8 6.8 0 1 0 -13.6 0zM742.88 1381.21 a6.8 6.8 0 1 0 13.6 0 a6.8 6.8 0 1 0 -13.6 0zM683.99 1415.21 a6.8 6.8 0 1 0 13.6 0 a6.8 6.8 0 1 0 -13.6 0zM742.88 -46.79 a6.8 6.8 0 1 0 13.6 0 a6.8 6.8 0 1 0 -13.6 0zM801.77 -12.79 a6.8 6.8 0 1 0 13.6 0 a6.8 6.8 0 1 0 -13.6 0zM801.77 55.21 a6.8 6.8 0 1 0 13.6 0 a6.8 6.8 0 1 0 -13.6 0zM742.88 89.21 a6.8 6.8 0 1 0 13.6 0 a6.8 6.8 0 1 0 -13.6 0zM683.99 55.21 a6.8 6.8 0 1 0 13.6 0 a6.8 6.8 0 1 0 -13.6 0zM683.99 -12.79 a6.8 6.8 0 1 0 13.6 0 a6.8 6.8 0 1 0 -13.6 0zM801.77 1211.21 a6.8 6.8 0 1 0 13.6 0 a6.8 6.8 0 1 0 -13.6 0zM801.77 1279.21 a6.8 6.8 0 1 0 13.6 0 a6.8 6.8 0 1 0 -13.6 0zM801.77 1415.21 a6.8 6.8 0 1 0 13.6 0 a6.8 6.8 0 1 0 -13.6 0zM801.77 1483.21 a6.8 6.8 0 1 0 13.6 0 a6.8 6.8 0 1 0 -13.6 0zM742.88 1517.21 a6.8 6.8 0 1 0 13.6 0 a6.8 6.8 0 1 0 -13.6 0zM683.99 1483.21 a6.8 6.8 0 1 0 13.6 0 a6.8 6.8 0 1 0 -13.6 0zM919.55 463.21 a6.8 6.8 0 1 0 13.6 0 a6.8 6.8 0 1 0 -13.6 0zM978.44 497.21 a6.8 6.8 0 1 0 13.6 0 a6.8 6.8 0 1 0 -13.6 0zM978.44 565.21 a6.8 6.8 0 1 0 13.6 0 a6.8 6.8 0 1 0 -13.6 0zM919.55 599.21 a6.8 6.8 0 1 0 13.6 0 a6.8 6.8 0 1 0 -13.6 0zM860.66 565.21 a6.8 6.8 0 1 0 13.6 0 a6.8 6.8 0 1 0 -13.6 0zM860.66 497.21 a6.8 6.8 0 1 0 13.6 0 a6.8 6.8 0 1 0 -13.6 0zM919.55 667.21 a6.8 6.8 0 1 0 13.6 0 a6.8 6.8 0 1 0 -13.6 0zM978.44 701.21 a6.8 6.8 0 1 0 13.6 0 a6.8 6.8 0 1 0 -13.6 0zM978.44 769.21 a6.8 6.8 0 1 0 13.6 0 a6.8 6.8 0 1 0 -13.6 0zM919.55 803.21 a6.8 6.8 0 1 0 13.6 0 a6.8 6.8 0 1 0 -13.6 0zM860.66 769.21 a6.8 6.8 0 1 0 13.6 0 a6.8 6.8 0 1 0 -13.6 0zM860.66 701.21 a6.8 6.8 0 1 0 13.6 0 a6.8 6.8 0 1 0 -13.6 0zM919.55 871.21 a6.8 6.8 0 1 0 13.6 0 a6.8 6.8 0 1 0 -13.6 0zM860.66 905.21 a6.8 6.8 0 1 0 13.6 0 a6.8 6.8 0 1 0 -13.6 0zM801.77 871.21 a6.8 6.8 0 1 0 13.6 0 a6.8 6.8 0 1 0 -13.6 0zM801.77 803.21 a6.8 6.8 0 1 0 13.6 0 a6.8 6.8 0 1 0 -13.6 0zM919.55 1483.21 a6.8 6.8 0 1 0 13.6 0 a6.8 6.8 0 1 0 -13.6 0zM978.44 1517.21 a6.8 6.8 0 1 0 13.6 0 a6.8 6.8 0 1 0 -13.6 0zM978.44 1585.21 a6.8 6.8 0 1 0 13.6 0 a6.8 6.8 0 1 0 -13.6 0zM919.55 1619.21 a6.8 6.8 0 1 0 13.6 0 a6.8 6.8 0 1 0 -13.6 0zM860.66 1585.21 a6.8 6.8 0 1 0 13.6 0 a6.8 6.8 0 1 0 -13.6 0zM860.66 1517.21 a6.8 6.8 0 1 0 13.6 0 a6.8 6.8 0 1 0 -13.6 0zM978.44 361.21 a6.8 6.8 0 1 0 13.6 0 a6.8 6.8 0 1 0 -13.6 0zM1037.33 395.21 a6.8 6.8 0 1 0 13.6 0 a6.8 6.8 0 1 0 -13.6 0zM1037.33 463.21 a6.8 6.8 0 1 0 13.6 0 a6.8 6.8 0 1 0 -13.6 0zM919.55 395.21 a6.8 6.8 0 1 0 13.6 0 a6.8 6.8 0 1 0 -13.6 0zM1037.33 667.21 a6.8 6.8 0 1 0 13.6 0 a6.8 6.8 0 1 0 -13.6 0zM1096.23 701.21 a6.8 6.8 0 1 0 13.6 0 a6.8 6.8 0 1 0 -13.6 0zM1096.23 769.21 a6.8 6.8 0 1 0 13.6 0 a6.8 6.8 0 1 0 -13.6 0zM1037.33 803.21 a6.8 6.8 0 1 0 13.6 0 a6.8 6.8 0 1 0 -13.6 0zM978.44 973.21 a6.8 6.8 0 1 0 13.6 0 a6.8 6.8 0 1 0 -13.6 0zM1037.33 1007.21 a6.8 6.8 0 1 0 13.6 0 a6.8 6.8 0 1 0 -13.6 0zM1037.33 1075.21 a6.8 6.8 0 1 0 13.6 0 a6.8 6.8 0 1 0 -13.6 0zM978.44 1109.21 a6.8 6.8 0 1 0 13.6 0 a6.8 6.8 0 1 0 -13.6 0zM919.55 1075.21 a6.8 6.8 0 1 0 13.6 0 a6.8 6.8 0 1 0 -13.6 0zM919.55 1007.21 a6.8 6.8 0 1 0 13.6 0 a6.8 6.8 0 1 0 -13.6 0zM1096.23 1109.21 a6.8 6.8 0 1 0 13.6 0 a6.8 6.8 0 1 0 -13.6 0zM1096.23 1177.21 a6.8 6.8 0 1 0 13.6 0 a6.8 6.8 0 1 0 -13.6 0zM1037.33 1211.21 a6.8 6.8 0 1 0 13.6 0 a6.8 6.8 0 1 0 -13.6 0zM978.44 1177.21 a6.8 6.8 0 1 0 13.6 0 a6.8 6.8 0 1 0 -13.6 0zM1037.33 1279.21 a6.8 6.8 0 1 0 13.6 0 a6.8 6.8 0 1 0 -13.6 0zM978.44 1313.21 a6.8 6.8 0 1 0 13.6 0 a6.8 6.8 0 1 0 -13.6 0zM919.55 1279.21 a6.8 6.8 0 1 0 13.6 0 a6.8 6.8 0 1 0 -13.6 0zM919.55 1211.21 a6.8 6.8 0 1 0 13.6 0 a6.8 6.8 0 1 0 -13.6 0zM1037.33 1483.21 a6.8 6.8 0 1 0 13.6 0 a6.8 6.8 0 1 0 -13.6 0zM1096.23 1517.21 a6.8 6.8 0 1 0 13.6 0 a6.8 6.8 0 1 0 -13.6 0zM1096.23 1585.21 a6.8 6.8 0 1 0 13.6 0 a6.8 6.8 0 1 0 -13.6 0zM1037.33 1619.21 a6.8 6.8 0 1 0 13.6 0 a6.8 6.8 0 1 0 -13.6 0zM1096.23 361.21 a6.8 6.8 0 1 0 13.6 0 a6.8 6.8 0 1 0 -13.6 0zM1155.12 395.21 a6.8 6.8 0 1 0 13.6 0 a6.8 6.8 0 1 0 -13.6 0zM1155.12 463.21 a6.8 6.8 0 1 0 13.6 0 a6.8 6.8 0 1 0 -13.6 0zM1096.23 497.21 a6.8 6.8 0 1 0 13.6 0 a6.8 6.8 0 1 0 -13.6 0zM1096.23 565.21 a6.8 6.8 0 1 0 13.6 0 a6.8 6.8 0 1 0 -13.6 0zM1155.12 599.21 a6.8 6.8 0 1 0 13.6 0 a6.8 6.8 0 1 0 -13.6 0zM1155.12 667.21 a6.8 6.8 0 1 0 13.6 0 a6.8 6.8 0 1 0 -13.6 0zM1037.33 599.21 a6.8 6.8 0 1 0 13.6 0 a6.8 6.8 0 1 0 -13.6 0zM1214.01 565.21 a6.8 6.8 0 1 0 13.6 0 a6.8 6.8 0 1 0 -13.6 0zM1272.9 599.21 a6.8 6.8 0 1 0 13.6 0 a6.8 6.8 0 1 0 -13.6 0zM1272.9 667.21 a6.8 6.8 0 1 0 13.6 0 a6.8 6.8 0 1 0 -13.6 0zM1214.01 701.21 a6.8 6.8 0 1 0 13.6 0 a6.8 6.8 0 1 0 -13.6 0zM1214.01 1381.21 a6.8 6.8 0 1 0 13.6 0 a6.8 6.8 0 1 0 -13.6 0zM1272.9 1415.21 a6.8 6.8 0 1 0 13.6 0 a6.8 6.8 0 1 0 -13.6 0zM1272.9 1483.21 a6.8 6.8 0 1 0 13.6 0 a6.8 6.8 0 1 0 -13.6 0zM1214.01 1517.21 a6.8 6.8 0 1 0 13.6 0 a6.8 6.8 0 1 0 -13.6 0zM1155.12 1483.21 a6.8 6.8 0 1 0 13.6 0 a6.8 6.8 0 1 0 -13.6 0zM1155.12 1415.21 a6.8 6.8 0 1 0 13.6 0 a6.8 6.8 0 1 0 -13.6 0zM1331.79 -46.79 a6.8 6.8 0 1 0 13.6 0 a6.8 6.8 0 1 0 -13.6 0zM1390.68 -12.79 a6.8 6.8 0 1 0 13.6 0 a6.8 6.8 0 1 0 -13.6 0zM1390.68 55.21 a6.8 6.8 0 1 0 13.6 0 a6.8 6.8 0 1 0 -13.6 0zM1331.79 89.21 a6.8 6.8 0 1 0 13.6 0 a6.8 6.8 0 1 0 -13.6 0zM1272.9 55.21 a6.8 6.8 0 1 0 13.6 0 a6.8 6.8 0 1 0 -13.6 0zM1272.9 -12.79 a6.8 6.8 0 1 0 13.6 0 a6.8 6.8 0 1 0 -13.6 0zM1331.79 361.21 a6.8 6.8 0 1 0 13.6 0 a6.8 6.8 0 1 0 -13.6 0zM1390.68 395.21 a6.8 6.8 0 1 0 13.6 0 a6.8 6.8 0 1 0 -13.6 0zM1390.68 463.21 a6.8 6.8 0 1 0 13.6 0 a6.8 6.8 0 1 0 -13.6 0zM1331.79 497.21 a6.8 6.8 0 1 0 13.6 0 a6.8 6.8 0 1 0 -13.6 0zM1272.9 463.21 a6.8 6.8 0 1 0 13.6 0 a6.8 6.8 0 1 0 -13.6 0zM1272.9 395.21 a6.8 6.8 0 1 0 13.6 0 a6.8 6.8 0 1 0 -13.6 0zM1449.57 769.21 a6.8 6.8 0 1 0 13.6 0 a6.8 6.8 0 1 0 -13.6 0zM1508.46 803.21 a6.8 6.8 0 1 0 13.6 0 a6.8 6.8 0 1 0 -13.6 0zM1508.46 871.21 a6.8 6.8 0 1 0 13.6 0 a6.8 6.8 0 1 0 -13.6 0zM1449.57 905.21 a6.8 6.8 0 1 0 13.6 0 a6.8 6.8 0 1 0 -13.6 0zM1390.68 871.21 a6.8 6.8 0 1 0 13.6 0 a6.8 6.8 0 1 0 -13.6 0zM1390.68 803.21 a6.8 6.8 0 1 0 13.6 0 a6.8 6.8 0 1 0 -13.6 0zM1508.46 1075.21 a6.8 6.8 0 1 0 13.6 0 a6.8 6.8 0 1 0 -13.6 0zM1567.36 1109.21 a6.8 6.8 0 1 0 13.6 0 a6.8 6.8 0 1 0 -13.6 0zM1567.36 1177.21 a6.8 6.8 0 1 0 13.6 0 a6.8 6.8 0 1 0 -13.6 0zM1508.46 1211.21 a6.8 6.8 0 1 0 13.6 0 a6.8 6.8 0 1 0 -13.6 0zM1449.57 1177.21 a6.8 6.8 0 1 0 13.6 0 a6.8 6.8 0 1 0 -13.6 0zM1449.57 1109.21 a6.8 6.8 0 1 0 13.6 0 a6.8 6.8 0 1 0 -13.6 0z" fill="#03305d"></path><path d="M252.93 612.11L371.58 680.61L371.58 817.61L252.93 886.11L134.28 817.61L134.28 680.61zM252.93 1023.11L371.58 1091.61L371.58 1228.61L252.93 1297.11L134.28 1228.61L134.28 1091.61zM252.93 1434.11L371.58 1502.61L371.58 1639.61L252.93 1708.11L134.28 1639.61L134.28 1502.61zM490.23 201.11L608.88 269.61L608.88 406.61L490.23 475.11L371.58 406.61L371.58 269.61zM490.23 612.11L608.88 680.61L608.88 817.61L490.23 886.11L371.58 817.61L371.58 680.61zM371.58 1228.61L490.23 1297.11L490.23 1434.11L371.58 1502.61L252.93 1434.11L252.93 1297.11zM608.88 -4.39L727.52 64.11L727.52 201.11L608.88 269.61L490.23 201.11L490.23 64.11zM608.88 817.61L727.52 886.11L727.52 1023.11L608.88 1091.61L490.23 1023.11L490.23 886.11zM846.17 -4.39L964.82 64.11L964.82 201.11L846.17 269.61L727.52 201.11L727.52 64.11zM964.82 201.11L1083.47 269.61L1083.47 406.61L964.82 475.11L846.17 406.61L846.17 269.61zM846.17 406.61L964.82 475.11L964.82 612.11L846.17 680.61L727.52 612.11L727.52 475.11zM964.82 1023.11L1083.47 1091.61L1083.47 1228.61L964.82 1297.11L846.17 1228.61L846.17 1091.61zM1320.77 -4.39L1439.42 64.11L1439.42 201.11L1320.77 269.61L1202.12 201.11L1202.12 64.11zM1320.77 406.61L1439.42 475.11L1439.42 612.11L1320.77 680.61L1202.12 612.11L1202.12 475.11zM1439.42 612.11L1558.07 680.61L1558.07 817.61L1439.42 886.11L1320.77 817.61L1320.77 680.61zM1320.77 817.61L1439.42 886.11L1439.42 1023.11L1320.77 1091.61L1202.12 1023.11L1202.12 886.11zM1676.72 612.11L1795.36 680.61L1795.36 817.61L1676.72 886.11L1558.07 817.61L1558.07 680.61z" stroke="rgba(19, 98, 97, 0.93)" stroke-width="2"></path></g><defs><mask id="SvgjsMask1067"><rect width="1440" height="1500" fill="#ffffff"></rect></mask></defs></svg>